<svg width="64" height="64" viewBox="0 0 64 64" fill="none" xmlns="http://www.w3.org/2000/svg">
  <rect width="64" height="64" rx="18" fill="#5865F2"/>
  <path d="M18.7 45.5C24.2 49.6 29.5 50.9 32 51c2.5-.1 7.8-1.4 13.3-5.5 1.6-4.9 2.8-10 3.1-15.2-2.4-1.8-4.9-3.1-7.4-3.9-.9 1.7-1.6 3.4-2 4.7-2.3-.4-4.7-.6-7-.6-2.3 0-4.7.2-7 .6-.4-1.3-1.1-3-2-4.7-2.5.8-5 2.1-7.4 3.9.3 5.2 1.5 10.3 3.1 15.2Z" fill="white"/>
  <circle cx="26.3" cy="36.2" r="2.9" fill="#5865F2"/>
  <circle cx="37.7" cy="36.2" r="2.9" fill="#5865F2"/>
  <path d="M24.8 41.6C27.1 43.5 29.5 44.4 32 44.4c2.5 0 4.9-.9 7.2-2.8" stroke="#5865F2" stroke-width="2.4" stroke-linecap="round"/>
</svg>
